<svg xmlns="http://www.w3.org/2000/svg" xmlns:xlink="http://www.w3.org/1999/xlink" width="110" zoomAndPan="magnify" viewBox="0 0 82.5 48.749998" height="65" preserveAspectRatio="xMidYMid meet" version="1.0"><defs><g/><clipPath id="1d928eff37"><path d="M 0 20 L 32 20 L 32 26 L 0 26 Z M 0 20 " clip-rule="nonzero"/></clipPath><clipPath id="cc93c3378e"><path d="M 5.316406 11.121094 L 31.523438 21.207031 L 26.171875 35.117188 L -0.0390625 25.03125 Z M 5.316406 11.121094 " clip-rule="nonzero"/></clipPath><clipPath id="81c00374b4"><path d="M 5.316406 11.121094 L 31.523438 21.207031 L 26.171875 35.117188 L -0.0390625 25.03125 Z M 5.316406 11.121094 " clip-rule="nonzero"/></clipPath><clipPath id="02bec2b072"><path d="M 5.316406 11.121094 L 31.503906 21.203125 L 26.191406 35.011719 L 0 24.929688 Z M 5.316406 11.121094 " clip-rule="nonzero"/></clipPath><clipPath id="79d54873d9"><path d="M 49 20 L 81 20 L 81 26 L 49 26 Z M 49 20 " clip-rule="nonzero"/></clipPath><clipPath id="9bf085bf2a"><path d="M 75.550781 34.71875 L 49.65625 23.859375 L 55.417969 10.113281 L 81.316406 20.972656 Z M 75.550781 34.71875 " clip-rule="nonzero"/></clipPath><clipPath id="1349bd577d"><path d="M 75.550781 34.71875 L 49.65625 23.859375 L 55.417969 10.113281 L 81.316406 20.972656 Z M 75.550781 34.71875 " clip-rule="nonzero"/></clipPath><clipPath id="63d6f4a00b"><path d="M 75.550781 34.714844 L 49.675781 23.863281 L 55.398438 10.21875 L 81.273438 21.074219 Z M 75.550781 34.714844 " clip-rule="nonzero"/></clipPath></defs><g clip-path="url(#1d928eff37)"><g clip-path="url(#cc93c3378e)"><g clip-path="url(#81c00374b4)"><g clip-path="url(#02bec2b072)"><path fill="#ffffff" d="M 30.84375 21.449219 C 27.019531 23.046875 22.527344 22.289062 18.433594 21.539062 C 13.890625 20.703125 7.53125 19.539062 3.230469 21.351562 C 2.046875 21.851562 0.910156 22.613281 0.433594 23.804688 C 0.234375 24.304688 0.222656 24.625 0.390625 24.929688 C 0.574219 25.257812 1.101562 25.367188 1.203125 25.097656 C 1.238281 25.011719 1.210938 24.960938 1.050781 24.835938 C 0.808594 24.640625 0.757812 24.460938 0.832031 24.054688 C 0.949219 23.417969 1.488281 22.695312 2.253906 22.15625 C 4.101562 20.851562 7.164062 20.320312 11.117188 20.613281 C 16.605469 21.019531 21.09375 22.601562 25.929688 22.523438 C 27.824219 22.492188 29.238281 22.25 30.453125 21.746094 C 30.960938 21.535156 31.523438 21.246094 31.503906 21.203125 C 31.492188 21.179688 30.847656 21.449219 30.84375 21.449219 " fill-opacity="1" fill-rule="nonzero"/></g></g></g></g><g fill="#ffffff" fill-opacity="1"><g transform="translate(30.467827, 28.672844)"><g><path d="M 1.53125 -6.578125 C 1.46875 -6.117188 1.414062 -5.710938 1.375 -5.359375 C 1.332031 -5.015625 1.28125 -4.660156 1.21875 -4.296875 C 1.851562 -5.910156 2.5 -7.15625 3.15625 -8.03125 C 3.820312 -8.914062 4.441406 -9.484375 5.015625 -9.734375 C 5.585938 -9.984375 6.050781 -9.96875 6.40625 -9.6875 C 6.820312 -9.351562 7.09375 -8.878906 7.21875 -8.265625 C 7.34375 -7.660156 7.367188 -6.984375 7.296875 -6.234375 C 7.222656 -5.492188 7.109375 -4.734375 6.953125 -3.953125 C 6.796875 -3.179688 6.632812 -2.453125 6.46875 -1.765625 C 6.3125 -1.078125 6.207031 -0.492188 6.15625 -0.015625 C 6.113281 0.460938 6.164062 0.785156 6.3125 0.953125 C 6.46875 1.117188 6.773438 1.066406 7.234375 0.796875 C 7.703125 0.503906 8.195312 0.0976562 8.71875 -0.421875 C 9.25 -0.953125 9.753906 -1.519531 10.234375 -2.125 C 10.722656 -2.726562 11.164062 -3.296875 11.5625 -3.828125 C 11.96875 -4.359375 12.285156 -4.773438 12.515625 -5.078125 C 12.566406 -5.117188 12.640625 -5.140625 12.734375 -5.140625 C 12.835938 -5.140625 12.890625 -5.113281 12.890625 -5.0625 C 12.585938 -4.664062 12.234375 -4.203125 11.828125 -3.671875 C 11.429688 -3.148438 11 -2.601562 10.53125 -2.03125 C 10.0625 -1.46875 9.578125 -0.925781 9.078125 -0.40625 C 8.585938 0.101562 8.097656 0.539062 7.609375 0.90625 C 7.242188 1.175781 6.957031 1.328125 6.75 1.359375 C 6.539062 1.390625 6.289062 1.332031 6 1.1875 C 5.71875 1.039062 5.53125 0.75 5.4375 0.3125 C 5.351562 -0.113281 5.328125 -0.625 5.359375 -1.21875 C 5.398438 -1.820312 5.476562 -2.472656 5.59375 -3.171875 C 5.707031 -3.867188 5.832031 -4.5625 5.96875 -5.25 C 6.101562 -5.9375 6.210938 -6.570312 6.296875 -7.15625 C 6.390625 -7.75 6.4375 -8.242188 6.4375 -8.640625 C 6.4375 -9.046875 6.359375 -9.304688 6.203125 -9.421875 C 5.828125 -9.691406 5.320312 -9.601562 4.6875 -9.15625 C 4.0625 -8.707031 3.40625 -7.898438 2.71875 -6.734375 C 2.039062 -5.566406 1.421875 -4.046875 0.859375 -2.171875 L 0.453125 0 C 0.347656 0.3125 0.203125 0.488281 0.015625 0.53125 C -0.171875 0.582031 -0.332031 0.539062 -0.46875 0.40625 C -0.601562 0.28125 -0.660156 0.128906 -0.640625 -0.046875 C -0.566406 -0.585938 -0.515625 -1.019531 -0.484375 -1.34375 C -0.453125 -1.664062 -0.421875 -1.953125 -0.390625 -2.203125 C -0.359375 -2.453125 -0.320312 -2.722656 -0.28125 -3.015625 C -0.25 -3.316406 -0.203125 -3.695312 -0.140625 -4.15625 C -0.078125 -4.625 0.0195312 -5.25 0.15625 -6.03125 C 0.226562 -6.3125 0.378906 -6.546875 0.609375 -6.734375 C 0.847656 -6.921875 1.066406 -7.015625 1.265625 -7.015625 C 1.472656 -7.015625 1.5625 -6.867188 1.53125 -6.578125 Z M 1.53125 -6.578125 "/></g></g></g><g fill="#ffffff" fill-opacity="1"><g transform="translate(42.815001, 28.672844)"><g><path d="M 8.5 2.453125 C 7.632812 3.109375 6.9375 3.34375 6.40625 3.15625 C 5.875 2.976562 5.507812 2.519531 5.3125 1.78125 C 5.195312 1.320312 5.175781 0.5625 5.25 -0.5 C 5.320312 -1.5625 5.441406 -2.742188 5.609375 -4.046875 C 5.035156 -3.242188 4.453125 -2.503906 3.859375 -1.828125 C 3.273438 -1.148438 2.710938 -0.628906 2.171875 -0.265625 C 1.640625 0.0859375 1.164062 0.191406 0.75 0.046875 C 0.425781 -0.0664062 0.175781 -0.351562 0 -0.8125 C -0.1875 -1.269531 -0.289062 -1.816406 -0.3125 -2.453125 C -0.34375 -3.097656 -0.296875 -3.769531 -0.171875 -4.46875 C -0.046875 -5.164062 0.15625 -5.8125 0.4375 -6.40625 C 0.726562 -7.007812 1.097656 -7.5 1.546875 -7.875 C 2.003906 -8.257812 2.539062 -8.445312 3.15625 -8.4375 C 3.75 -8.414062 4.265625 -8.128906 4.703125 -7.578125 C 5.148438 -7.023438 5.523438 -6.394531 5.828125 -5.6875 C 6.203125 -8.238281 6.679688 -10.425781 7.265625 -12.25 C 7.859375 -14.082031 8.550781 -15.488281 9.34375 -16.46875 C 10.144531 -17.445312 11.023438 -17.9375 11.984375 -17.9375 C 12.523438 -17.9375 12.925781 -17.707031 13.1875 -17.25 C 13.445312 -16.789062 13.460938 -16.085938 13.234375 -15.140625 C 13.003906 -14.203125 12.441406 -13.003906 11.546875 -11.546875 C 10.660156 -10.097656 9.335938 -8.382812 7.578125 -6.40625 C 7.460938 -5.9375 7.328125 -5.359375 7.171875 -4.671875 C 7.023438 -3.992188 6.878906 -3.269531 6.734375 -2.5 C 6.585938 -1.738281 6.472656 -1.003906 6.390625 -0.296875 C 6.304688 0.398438 6.265625 1.015625 6.265625 1.546875 C 6.273438 2.078125 6.359375 2.441406 6.515625 2.640625 C 6.648438 2.804688 6.859375 2.851562 7.140625 2.78125 C 7.429688 2.71875 7.753906 2.570312 8.109375 2.34375 C 8.484375 2.101562 8.894531 1.726562 9.34375 1.21875 C 9.800781 0.71875 10.257812 0.160156 10.71875 -0.453125 C 11.1875 -1.066406 11.632812 -1.6875 12.0625 -2.3125 C 12.5 -2.9375 12.882812 -3.492188 13.21875 -3.984375 C 13.5625 -4.484375 13.820312 -4.847656 14 -5.078125 C 14.050781 -5.117188 14.125 -5.140625 14.21875 -5.140625 C 14.320312 -5.140625 14.375 -5.113281 14.375 -5.0625 C 14.125 -4.738281 13.828125 -4.320312 13.484375 -3.8125 C 13.140625 -3.3125 12.757812 -2.757812 12.34375 -2.15625 C 11.925781 -1.5625 11.492188 -0.960938 11.046875 -0.359375 C 10.609375 0.234375 10.171875 0.773438 9.734375 1.265625 C 9.296875 1.765625 8.882812 2.160156 8.5 2.453125 Z M 7.640625 -6.96875 C 9.253906 -8.894531 10.46875 -10.535156 11.28125 -11.890625 C 12.101562 -13.242188 12.625 -14.335938 12.84375 -15.171875 C 13.070312 -16.015625 13.082031 -16.628906 12.875 -17.015625 C 12.664062 -17.398438 12.335938 -17.59375 11.890625 -17.59375 C 11.546875 -17.59375 11.160156 -17.3125 10.734375 -16.75 C 10.304688 -16.195312 9.882812 -15.425781 9.46875 -14.4375 C 9.0625 -13.457031 8.691406 -12.328125 8.359375 -11.046875 C 8.035156 -9.773438 7.796875 -8.414062 7.640625 -6.96875 Z M 3.15625 -8.109375 C 2.90625 -8.097656 2.648438 -7.910156 2.390625 -7.546875 C 2.140625 -7.179688 1.90625 -6.71875 1.6875 -6.15625 C 1.476562 -5.59375 1.296875 -4.992188 1.140625 -4.359375 C 0.992188 -3.722656 0.890625 -3.109375 0.828125 -2.515625 C 0.765625 -1.929688 0.753906 -1.429688 0.796875 -1.015625 C 0.847656 -0.597656 0.976562 -0.335938 1.1875 -0.234375 C 1.445312 -0.109375 1.960938 -0.382812 2.734375 -1.0625 C 3.503906 -1.75 4.488281 -2.9375 5.6875 -4.625 L 5.75 -5.0625 C 5.632812 -5.34375 5.488281 -5.660156 5.3125 -6.015625 C 5.144531 -6.378906 4.945312 -6.722656 4.71875 -7.046875 C 4.488281 -7.367188 4.242188 -7.632812 3.984375 -7.84375 C 3.722656 -8.050781 3.445312 -8.140625 3.15625 -8.109375 Z M 3.15625 -8.109375 "/></g></g></g><g clip-path="url(#79d54873d9)"><g clip-path="url(#9bf085bf2a)"><g clip-path="url(#1349bd577d)"><g clip-path="url(#63d6f4a00b)"><path fill="#ffffff" d="M 50.34375 23.636719 C 54.214844 22.15625 58.683594 23.042969 62.75 23.914062 C 67.265625 24.882812 73.589844 26.238281 77.941406 24.554688 C 79.140625 24.089844 80.296875 23.363281 80.808594 22.183594 C 81.023438 21.691406 81.042969 21.371094 80.882812 21.0625 C 80.714844 20.730469 80.1875 20.601562 80.078125 20.867188 C 80.039062 20.957031 80.066406 21.007812 80.222656 21.136719 C 80.460938 21.335938 80.503906 21.519531 80.417969 21.925781 C 80.28125 22.558594 79.71875 23.261719 78.941406 23.78125 C 77.058594 25.027344 73.976562 25.46875 70.035156 25.058594 C 64.558594 24.488281 60.125 22.777344 55.285156 22.710938 C 53.390625 22.683594 51.972656 22.886719 50.742188 23.351562 C 50.226562 23.546875 49.660156 23.820312 49.675781 23.863281 C 49.6875 23.886719 50.335938 23.636719 50.34375 23.636719 " fill-opacity="1" fill-rule="nonzero"/></g></g></g></g></svg>